<svg xmlns="http://www.w3.org/2000/svg" xmlns:xlink="http://www.w3.org/1999/xlink" version="1.1" width="851" height="315" viewBox="0 0 851 315" xml:space="preserve">
<desc>Created with Fabric.js 3.5.0</desc>
<defs>
</defs>
<rect x="0" y="0" width="100%" height="100%" fill="rgba(255,255,255,0)"/>
<g transform="matrix(1 0 0 1 423.5 156.065)" style="" id="509014">
		
<path xml:space="preserve" font-family="Lato" font-size="50" font-style="normal" font-weight="normal" style="stroke: rgb(255,255,255); stroke-width: 1; stroke-dasharray: none; stroke-linecap: butt; stroke-dashoffset: 0; stroke-linejoin: miter; stroke-miterlimit: 4; is-custom-font: none; font-file-url: none; fill: none; fill-rule: nonzero; opacity: 1; white-space: pre;" d="M-56.13-16.82L-57.30-14.52Q-57.52-14.14-57.77-13.96Q-58.02-13.77-58.42-13.77L-58.42-13.77Q-58.85-13.77-59.41-14.19Q-59.97-14.62-60.84-15.13Q-61.70-15.64-62.91-16.07Q-64.13-16.49-65.85-16.49L-65.85-16.49Q-67.47-16.49-68.72-16.06Q-69.97-15.62-70.81-14.87Q-71.65-14.12-72.08-13.11Q-72.50-12.09-72.50-10.92L-72.50-10.92Q-72.50-9.42-71.76-8.43Q-71.03-7.44-69.81-6.74Q-68.60-6.04-67.06-5.53Q-65.53-5.02-63.91-4.47Q-62.30-3.92-60.76-3.23Q-59.22-2.54-58.01-1.49Q-56.80-0.44-56.06 1.08Q-55.33 2.61-55.33 4.83L-55.33 4.83Q-55.33 7.18-56.13 9.24Q-56.92 11.31-58.46 12.83Q-60 14.36-62.24 15.23Q-64.47 16.11-67.33 16.11L-67.33 16.11Q-70.80 16.11-73.66 14.84Q-76.53 13.58-78.55 11.43L-78.55 11.43L-77.15 9.13Q-76.95 8.86-76.66 8.67Q-76.38 8.48-76.03 8.48L-76.03 8.48Q-75.50 8.48-74.83 9.04Q-74.15 9.61-73.14 10.28Q-72.13 10.96-70.69 11.52Q-69.25 12.08-67.17 12.08L-67.17 12.08Q-65.45 12.08-64.10 11.61Q-62.75 11.13-61.81 10.27Q-60.88 9.41-60.38 8.21Q-59.88 7.01-59.88 5.53L-59.88 5.53Q-59.88 3.91-60.61 2.87Q-61.35 1.83-62.55 1.13Q-63.75 0.43-65.29-0.06Q-66.83-0.54-68.44-1.06Q-70.05-1.57-71.59-2.24Q-73.13-2.92-74.33-3.99Q-75.53-5.07-76.26-6.68Q-77-8.29-77-10.67L-77-10.67Q-77-12.57-76.26-14.34Q-75.53-16.12-74.13-17.49Q-72.72-18.87-70.66-19.69Q-68.60-20.52-65.92-20.52L-65.92-20.52Q-62.92-20.52-60.45-19.57Q-57.97-18.62-56.13-16.82L-56.13-16.82ZM-15.88-2.19L-15.88-2.19Q-15.88 1.83-17.15 5.19Q-18.42 8.56-20.75 10.98Q-23.07 13.41-26.34 14.74Q-29.60 16.08-33.55 16.08L-33.55 16.08Q-37.50 16.08-40.75 14.74Q-44 13.41-46.33 10.98Q-48.65 8.56-49.92 5.19Q-51.20 1.83-51.20-2.19L-51.20-2.19Q-51.20-6.22-49.92-9.58Q-48.65-12.94-46.33-15.38Q-44-17.82-40.75-19.17Q-37.50-20.52-33.55-20.52L-33.55-20.52Q-29.60-20.52-26.34-19.17Q-23.07-17.82-20.75-15.38Q-18.42-12.94-17.15-9.58Q-15.88-6.22-15.88-2.19ZM-20.85-2.19L-20.85-2.19Q-20.85-5.49-21.75-8.12Q-22.65-10.74-24.30-12.56Q-25.95-14.37-28.30-15.34Q-30.65-16.32-33.55-16.32L-33.55-16.32Q-36.42-16.32-38.77-15.34Q-41.13-14.37-42.79-12.56Q-44.45-10.74-45.35-8.12Q-46.25-5.49-46.25-2.19L-46.25-2.19Q-46.25 1.11-45.35 3.72Q-44.45 6.33-42.79 8.14Q-41.13 9.96-38.77 10.92Q-36.42 11.88-33.55 11.88L-33.55 11.88Q-30.65 11.88-28.30 10.92Q-25.95 9.96-24.30 8.14Q-22.65 6.33-21.75 3.72Q-20.85 1.11-20.85-2.19ZM3.43 15.71L-9.25 15.71L-9.25-20.12L2.18-20.12Q5.48-20.12 7.86-19.47Q10.25-18.82 11.79-17.62Q13.33-16.42 14.06-14.68Q14.80-12.94 14.80-10.77L14.80-10.77Q14.80-9.44 14.39-8.22Q13.98-6.99 13.14-5.94Q12.30-4.89 11.04-4.07Q9.78-3.24 8.08-2.72L8.08-2.72Q12.00-1.94 14.00 0.11Q16.00 2.16 16.00 5.51L16.00 5.51Q16.00 7.78 15.16 9.66Q14.33 11.53 12.71 12.88Q11.10 14.23 8.76 14.97Q6.43 15.71 3.43 15.71L3.43 15.71ZM3.33-0.62L-4.40-0.62L-4.40 11.86L3.35 11.86Q5.43 11.86 6.91 11.38Q8.40 10.91 9.36 10.04Q10.33 9.18 10.78 7.99Q11.23 6.81 11.23 5.38L11.23 5.38Q11.23 2.61 9.26 0.99Q7.30-0.62 3.33-0.62L3.33-0.62ZM-4.40-16.29L-4.40-4.07L2.00-4.07Q4.05-4.07 5.55-4.52Q7.05-4.97 8.04-5.77Q9.03-6.57 9.50-7.71Q9.98-8.84 9.98-10.19L9.98-10.19Q9.98-13.34 8.08-14.82Q6.18-16.29 2.18-16.29L2.18-16.29L-4.40-16.29ZM32.10 0.76L28.43 0.76L28.43 15.71L23.60 15.71L23.60-20.12L33.73-20.12Q37.13-20.12 39.60-19.43Q42.08-18.74 43.69-17.44Q45.30-16.14 46.08-14.31Q46.85-12.47 46.85-10.19L46.85-10.19Q46.85-8.29 46.25-6.64Q45.65-4.99 44.51-3.68Q43.38-2.37 41.74-1.44Q40.10-0.52 38.03-0.04L38.03-0.04Q38.93 0.48 39.63 1.48L39.63 1.48L50.08 15.71L45.78 15.71Q44.45 15.71 43.83 14.68L43.83 14.68L34.53 1.88Q34.10 1.28 33.60 1.02Q33.10 0.76 32.10 0.76L32.10 0.76ZM28.43-16.29L28.43-2.77L33.50-2.77Q35.63-2.77 37.24-3.28Q38.85-3.79 39.94-4.73Q41.03-5.67 41.58-6.97Q42.13-8.27 42.13-9.84L42.13-9.84Q42.13-13.04 40.01-14.67Q37.90-16.29 33.73-16.29L33.73-16.29L28.43-16.29ZM55.30-20.12L77.38-20.12L77.38-16.17L60.18-16.17L60.18-4.27L74.10-4.27L74.10-0.47L60.18-0.47L60.18 11.76L77.38 11.76L77.38 15.71L55.30 15.71L55.30-20.12Z"/></g>
</svg>